<svg xmlns="http://www.w3.org/2000/svg">

    <symbol id="icon-send" viewBox="0 0 24 24" fill="none" xmlns="http://www.w3.org/2000/svg">
        <path d="M1.94607 10.3153C1.42353 10.1411 1.4194 9.8601 1.95682 9.68096L21.043 3.31889C21.5715 3.14273 21.8746 3.43854 21.7265 3.95682L16.2733 23.0431C16.1223 23.5715 15.8177 23.5899 15.5944 23.0875L11.9999 14.9999L17.9999 6.99993L9.99992 12.9999L1.94607 10.3153Z" fill="currentColor"/>
    </symbol>

    <symbol id="icon-mail" viewBox="0 0 20 20" fill="none" xmlns="http://www.w3.org/2000/svg">
        <path d="M17.5 2.5C17.9603 2.5 18.3333 2.8731 18.3333 3.33333V16.6722C18.3333 17.1293 17.9539 17.5 17.5068 17.5H2.49317C2.03671 17.5 1.66667 17.1292 1.66667 16.6722V15.8333H16.6667V6.08333L10 12.0833L1.66667 4.58333V3.33333C1.66667 2.8731 2.03977 2.5 2.5 2.5H17.5ZM6.66667 12.5V14.1667H0V12.5H6.66667ZM4.16667 8.33333V10H0V8.33333H4.16667ZM16.3049 4.16667H3.69512L10 9.84108L16.3049 4.16667Z" fill="currentColor" fill-opacity="0.4"/>
    </symbol>

    <symbol id="icon-copyright" viewBox="0 0 24 24" fill="none" xmlns="http://www.w3.org/2000/svg">
        <path d="M16.2877 9.42773C15.413 7.97351 13.8195 7 12 7C9.23999 7 7 9.23999 7 12C7 14.76 9.23999 17 12 17C13.8195 17 15.413 16.0265 16.2877 14.5723L14.5729 13.5442C14.0483 14.4166 13.0927 15 12 15C10.3425 15 9 13.6575 9 12C9 10.3425 10.3425 9 12 9C13.093 9 14.0491 9.58386 14.5735 10.4568L16.2877 9.42773ZM22 12C22 6.47998 17.52 2 12 2C6.47998 2 2 6.47998 2 12C2 17.52 6.47998 22 12 22C17.52 22 22 17.52 22 12ZM4 12C4 7.57996 7.57996 4 12 4C16.42 4 20 7.57996 20 12C20 16.42 16.42 20 12 20C7.57996 20 4 16.42 4 12Z" fill="currentColor" fill-opacity="0.8"/>
    </symbol>

    <symbol id="icon-title" viewBox="0 0 420 84" fill="none" xmlns="http://www.w3.org/2000/svg">
        <path d="M0 73.5V0H63V10.5H21V31.5H63V42H73.5V63H63V73.5H0ZM21 63H52.5V42H21V63ZM84 73.5V0H157.5V10.5H105V31.5H147V42H105V63H157.5V73.5H84ZM189 73.5V63H178.5V52.5H168V21H178.5V10.5H189V0H231V10.5H241.5V21H220.5V10.5H199.5V21H189V52.5H199.5V63H220.5V52.5H241.5V63H231V73.5H189Z" fill="#87F29A"/>
        <path d="M262.5 73.5V63H283.5V10.5H262.5V0H325.5V10.5H304.5V63H325.5V73.5H262.5ZM367.5 73.5V10.5H346.5V0H409.5V10.5H388.5V73.5H367.5Z" fill="white"/>
    </symbol>

    <symbol id="callout" width="32" height="40" viewBox="0 0 32 40" fill="none" xmlns="http://www.w3.org/2000/svg">
        <path d="M17 0L32 31C32 31 19.5 40 0 40C18.5 22 17 0 17 0Z" fill="currentColor"/>
    </symbol>

 
</svg>